<?xml version="1.0" encoding="UTF-8"?>
<svg xmlns="http://www.w3.org/2000/svg" width="149" height="58" viewBox="0 0 149 58" fill="none">
  <g id="Clip path group">
    <mask id="mask0_2205_10575" style="mask-type:luminance" maskUnits="userSpaceOnUse" x="0" y="0" width="149" height="58">
      <g id="clippath">
        <path id="Vector" d="M149 0H0V57.1199H149V0Z" fill="white"></path>
      </g>
    </mask>
    <g mask="url(#mask0_2205_10575)">
      <g id="Group">
        <path id="Vector_2" d="M109.958 31.1353C109.494 31.0997 107.689 31.1353 106.063 29.9173C104.67 28.8772 102.704 27.2769 102.749 25.9878C102.802 24.4231 104.428 22.0494 105.876 21.5783C109.378 20.4403 113.228 19.4624 116.829 19.7558C125.271 20.4492 133.651 21.8894 142.04 23.1163C142.371 23.1607 143.845 23.5074 145.489 24.4765C146.203 24.9032 149.169 26.6457 148.982 28.3793C148.839 29.6506 147.016 30.5307 145.006 31.1708C138.672 33.2067 135.161 31.4731 126.888 31.4464C124.012 31.4375 115.614 31.6153 109.95 31.1353" fill="#F79838"></path>
        <path id="Vector_3" d="M133.33 40.4687C133.607 41.0199 135.34 44.5494 133.697 47.5009C132.633 49.4034 130.516 50.7192 127.639 50.9059C124.361 51.1193 120.894 50.6303 117.714 49.7413C113.515 48.5678 111.764 45.3673 112.184 41.1622C112.362 39.3663 112.934 37.8994 113.935 36.7971C115.614 34.939 117.91 34.5923 119.358 34.4056C123.896 33.8188 130.775 35.3035 133.339 40.4687" fill="#F0592B"></path>
        <path id="Vector_4" d="M122.376 0.898628C121.823 1.16534 118.258 2.86337 117.713 6.19722C117.365 8.33977 118.204 10.6779 120.349 12.6071C122.787 14.7941 125.816 16.5544 128.863 17.8079C132.892 19.4704 136.251 18.039 138.547 14.4829C139.53 12.9627 139.985 11.4602 139.896 9.97557C139.735 7.4863 138.145 5.79716 137.126 4.757C133.928 1.49427 127.603 -1.57286 122.385 0.889737" fill="#F7BB33"></path>
        <path id="Vector_5" d="M24.7827 39.5353C24.7827 41.4467 24.4432 41.7223 22.5224 41.7223C20.6016 41.7223 20.1281 41.2067 20.1281 39.4731V20.2968C20.1281 14.8382 18.3771 11.4333 13.0882 11.4333H2.45683C0.732582 11.4244 0 11.1488 0 9.69966C0 8.18831 0.732582 7.85938 2.45683 7.85938H13.8833C17.2246 7.85938 19.9405 8.97066 22.0579 10.8998C24.202 12.8557 24.7827 14.8293 24.7827 18.1098V39.5353Z" fill="#6D6D66"></path>
        <path id="Vector_6" d="M34.6188 39.3309C34.6188 41.2423 34.1453 41.7135 32.2245 41.7135C30.3037 41.7135 29.9642 41.4645 29.9642 39.7309V25.4799C29.9642 24.5286 29.8302 23.8352 30.4377 23.2306C31.0363 22.635 31.5455 22.795 32.3585 22.795C34.0827 22.795 34.6188 23.3195 34.6188 25.4799V39.3309ZM57.5432 39.3309C57.5432 41.2423 57.1323 41.7135 55.2204 41.7135C53.4247 41.7135 52.8976 41.5356 52.8976 39.7932V20.0835C52.8976 14.6249 49.6635 11.4244 44.321 11.4244H31.8314C30.1071 11.4244 29.6426 11.1488 29.6426 9.70855C29.6426 8.18831 30.1161 7.85938 31.8314 7.85938H46.7153C50.0566 7.85938 52.701 8.40168 54.8094 10.3309C56.9536 12.2867 57.5432 14.8916 57.5432 18.1721V39.3309Z" fill="#6D6D66"></path>
        <path id="Vector_7" d="M89.1076 21.7458C89.1076 17.9764 87.9998 14.7937 86.079 12.9089C84.0421 10.8553 80.8259 9.70843 77.2523 9.70843C75.6263 9.70843 74.1165 9.95736 72.7853 10.4197C71.4542 10.8819 70.1498 11.6999 69.2207 12.6422C68.3005 13.5846 67.4875 14.8381 66.9872 16.2961C66.4869 17.7541 66.2457 19.6566 66.2457 21.6392V26.4488C66.2457 30.7072 67.2731 34.2722 69.1135 36.1836C71.0611 38.2373 73.9557 39.3841 77.297 39.3308C79.048 39.3308 80.7455 39.1174 82.1391 38.6195C83.5239 38.1217 84.8729 37.2949 85.8557 36.2903C86.8384 35.2857 87.6782 33.9699 88.1963 32.4319C88.7145 30.8939 89.0987 28.8491 89.0987 26.7688V21.7458H89.1076ZM93.8962 26.0398C93.8962 31.4273 92.5204 35.1523 89.4471 38.1395C86.4006 41.0999 82.3714 42.3712 77.154 42.3712C71.9366 42.3712 68.9169 41.3488 65.9866 38.5395C63.0384 35.7213 61.332 31.6762 61.332 25.9776V21.8792C61.332 17.0073 62.4309 13.7624 64.986 11.1664C68.0593 8.10819 71.8741 6.66797 77.2165 6.66797C83.1219 6.66797 87.4638 8.07263 90.4388 11.0331C92.8956 13.5579 93.8962 16.9718 93.8962 22.0125V26.0487V26.0398Z" fill="#6D6D66"></path>
        <path id="Vector_8" d="M6.20898 56.1351V55.4505C6.28939 55.4594 6.38766 55.4594 6.46807 55.4594C7.08451 55.4594 7.22745 55.2194 7.22745 54.6682V50.712H9.60388C10.81 50.712 11.3907 51.2632 11.3907 52.4101V56.1351H10.5151V52.3212C10.5151 51.7344 10.1846 51.3966 9.56814 51.3966H8.08511V54.8015C8.08511 55.6194 7.78136 56.1706 6.74502 56.1706C6.59314 56.1706 6.3698 56.1528 6.20898 56.1351ZM13.0345 50.712H13.8922L14.2942 55.4505H16.3669C17.4211 55.4505 18.0911 54.4548 18.0911 53.1124V50.7031H18.9666V53.0768C18.9666 54.8904 17.9214 56.1262 16.4294 56.1262H13.4991L13.0256 50.7031L13.0345 50.712ZM15.2322 54.2414C15.4735 53.7703 15.6164 53.1746 15.6164 52.5167V50.712H16.483V52.4278C16.483 53.3702 16.2775 53.9658 15.8755 54.4904L15.2412 54.2414H15.2322ZM23.2549 52.3212C23.2549 51.7344 22.9422 51.3966 22.299 51.3966H20.4854V50.712H22.3437C23.5676 50.712 24.1304 51.2632 24.1304 52.4101V56.1351H23.2549V52.3212ZM25.7296 55.4594H28.5795C28.4723 55.2372 28.4187 54.8638 28.4187 54.4815V52.3212C28.4187 51.7166 28.0971 51.3966 27.4628 51.3966H25.7832V50.712H27.5164C28.7135 50.712 29.3032 51.3077 29.3032 52.4101V54.5082C29.3032 54.9082 29.3389 55.2105 29.4283 55.4505H30.009V56.1351H25.7296V55.4505V55.4594ZM33.9846 53.9125C33.9846 53.5747 34.056 53.2368 34.19 53.0502H34.9405C34.8779 53.2724 34.8422 53.5213 34.8422 54.1259V56.144H33.9756V53.9125H33.9846ZM37.2544 51.4055H34.0024V50.7209H38.1299V56.144H37.2544V51.4055ZM39.8005 55.4683H42.6505C42.5433 55.246 42.4897 54.8727 42.4897 54.4904V52.33C42.4897 51.7255 42.168 51.4055 41.5337 51.4055H39.8541V50.7209H41.5873C42.7845 50.7209 43.3741 51.3166 43.3741 52.4189V54.517C43.3741 54.9171 43.4098 55.2194 43.4992 55.4594H44.0799V56.144H39.8005V55.4594V55.4683ZM45.3038 50.7298H46.1615L46.5635 55.4683H48.6362C49.6904 55.4683 50.3604 54.4726 50.3604 53.1302V50.7209H51.236V53.0946C51.236 54.9082 50.1907 56.144 48.6987 56.144H45.7684L45.2949 50.7209L45.3038 50.7298ZM47.5016 54.2592C47.7428 53.788 47.8857 53.1924 47.8857 52.5345V50.7298H48.7523V52.4456C48.7523 53.388 48.5469 53.9836 48.1448 54.5082L47.5105 54.2592H47.5016ZM54.8095 55.5839C55.7208 54.9704 56.4087 54.0814 56.4087 52.7568V51.4143H53.0853V50.7298H57.2753V52.6501C57.2753 54.2681 56.4623 55.4683 55.2205 56.1973L54.8095 55.5839ZM53.1836 53.8858C53.1836 53.628 53.2372 53.308 53.389 53.0679H54.1216C54.0502 53.2991 54.0412 53.6102 54.0412 54.0814V58.0198H53.1836V53.8858ZM59.205 53.9214C59.205 53.5836 59.2765 53.2457 59.4105 53.059H60.161C60.0984 53.2813 60.0627 53.5302 60.0627 54.1348V56.1529H59.1961V53.9214H59.205ZM62.4748 51.4143H59.2229V50.7298H63.3504V56.1529H62.4748V51.4143ZM65.5034 51.4143H64.9227V50.7298H66.379V56.1529H65.5034V51.4143ZM75.17 50.7298L75.0449 53.5658C74.9913 55.0327 74.0532 56.1529 72.4987 56.1529H70.5958V55.4683H72.1771C71.8644 55.1838 71.7036 54.8015 71.65 54.4015L71.0693 50.7209H71.9359L72.5076 54.4993C72.5523 54.846 72.6417 55.1394 72.8382 55.4061C73.7316 55.2105 74.1336 54.5082 74.1693 53.5569L74.2855 50.7209H75.17V50.7298ZM77.198 51.4143H76.6172V50.7298H78.0735V56.1529H77.198V51.4143ZM80.3338 53.8414C80.4946 53.2991 80.5214 52.7479 80.5214 52.0456V51.4143H79.6101V50.7298H81.3969V51.7611C81.3969 52.739 81.3254 53.4235 81.0753 54.0014L80.3338 53.8414ZM83.2373 53.7258V50.7298H85.8281C87.1235 50.7298 87.6953 51.3521 87.6953 52.6145V53.7258C87.6864 55.2549 86.8019 56.2329 85.4618 56.2329C84.1217 56.2329 83.2373 55.2549 83.2373 53.7258ZM86.8198 53.8858V52.5256C86.8198 51.8055 86.4982 51.4143 85.7835 51.4143H84.1039V53.8858C84.1039 55.006 84.7025 55.5483 85.4529 55.5483C86.2034 55.5483 86.8109 55.006 86.8109 53.8858H86.8198Z" fill="#231F20"></path>
      </g>
    </g>
  </g>
</svg>
